
            <svg data-logo="logo" xmlns="http://www.w3.org/2000/svg" viewBox="0 0 198 40">
                <g id="logogram" transform="translate(0, 0)"><path d="M0.25 20C0.25 8.9543 9.2043 0 20.25 0H46.5C57.5458 0 66.5 8.9543 66.5 20V40H20.25C9.2043 40 0.25 31.0458 0.25 20Z" fill="#4845D2"/><path d="M46.5 7.5H20.25C13.3464 7.5 7.75 13.0964 7.75 20C7.75 26.9036 13.3464 32.5 20.25 32.5H46.5C53.4036 32.5 59 26.9036 59 20C59 13.0964 53.4036 7.5 46.5 7.5Z" fill="#A5B4FC"/><path d="M20.25 26.25C23.7018 26.25 26.5 23.4518 26.5 20C26.5 16.5482 23.7018 13.75 20.25 13.75C16.7982 13.75 14 16.5482 14 20C14 23.4518 16.7982 26.25 20.25 26.25Z" fill="#000000"/><path d="M17.75 18.75C18.4404 18.75 19 18.1904 19 17.5C19 16.8096 18.4404 16.25 17.75 16.25C17.0596 16.25 16.5 16.8096 16.5 17.5C16.5 18.1904 17.0596 18.75 17.75 18.75Z" fill="#ffffff"/><path d="M47.75 26.25C51.2018 26.25 54 23.4518 54 20C54 16.5482 51.2018 13.75 47.75 13.75C44.2982 13.75 41.5 16.5482 41.5 20C41.5 23.4518 44.2982 26.25 47.75 26.25Z" fill="#000000"/><path d="M45.25 18.75C45.9404 18.75 46.5 18.1904 46.5 17.5C46.5 16.8096 45.9404 16.25 45.25 16.25C44.5596 16.25 44 16.8096 44 17.5C44 18.1904 44.5596 18.75 45.25 18.75Z" fill="#ffffff"/></g>
                <g id="logotype" transform="translate(70, 7.5)"><path fill="#4845D2" d="M8.65 25L4.85 25L4.85 7.25L9.93 7.25L14.45 20.18L18.95 7.25L24.03 7.25L24.03 25L20.23 25L20.23 13.50L16.05 24.95L12.80 24.95L8.65 13.50L8.65 25ZM37.77 25.30L37.77 25.30Q35.73 25.30 34.20 24.44Q32.67 23.57 31.82 22Q30.98 20.43 30.98 18.30L30.98 18.30Q30.98 16.17 31.82 14.61Q32.67 13.05 34.20 12.17Q35.73 11.30 37.77 11.30L37.77 11.30Q39.83 11.30 41.35 12.17Q42.88 13.05 43.73 14.61Q44.58 16.17 44.58 18.30L44.58 18.30Q44.58 20.43 43.73 22Q42.88 23.57 41.35 24.44Q39.83 25.30 37.77 25.30ZM37.77 22.43L37.77 22.43Q39.17 22.43 39.95 21.34Q40.73 20.25 40.73 18.30L40.73 18.30Q40.73 16.35 39.95 15.26Q39.17 14.17 37.77 14.17L37.77 14.17Q36.38 14.17 35.60 15.26Q34.83 16.35 34.83 18.30L34.83 18.30Q34.83 20.25 35.60 21.34Q36.38 22.43 37.77 22.43ZM57.40 25.30L57.40 25.30Q55.35 25.30 53.82 24.44Q52.30 23.57 51.45 22Q50.60 20.43 50.60 18.30L50.60 18.30Q50.60 16.17 51.45 14.61Q52.30 13.05 53.82 12.17Q55.35 11.30 57.40 11.30L57.40 11.30Q59.17 11.30 60.59 11.92Q62 12.55 62.88 13.72Q63.75 14.90 63.95 16.55L63.95 16.55L60.07 16.73Q59.90 15.47 59.19 14.84Q58.47 14.20 57.40 14.20L57.40 14.20Q56 14.20 55.22 15.27Q54.45 16.35 54.45 18.30L54.45 18.30Q54.45 20.25 55.22 21.34Q56 22.43 57.40 22.43L57.40 22.43Q58.47 22.43 59.20 21.76Q59.92 21.10 60.07 19.75L60.07 19.75L63.95 19.90Q63.77 21.55 62.91 22.76Q62.05 23.98 60.64 24.64Q59.22 25.30 57.40 25.30ZM74.20 25L70.45 25L70.45 7.25L74.20 7.25L74.20 17.10L79.17 11.60L83.67 11.60L78.47 17.13L83.83 25L79.72 25L76.05 19.25L74.20 21.23L74.20 25ZM93.90 25L89.82 25L89.82 21.18L93.90 21.18L93.90 25ZM103.63 25L99.70 25L106.10 7.25L110.60 7.25L117 25L113.05 25L111.75 21.23L104.92 21.23L103.63 25ZM108.35 11.25L106 18.10L110.70 18.10L108.35 11.25ZM126.90 25L123.10 25L123.10 7.25L126.90 7.25L126.90 25Z"/></g>
                
            </svg>
        